<svg width="16" height="16" viewBox="0 0 16 16" fill="none" xmlns="http://www.w3.org/2000/svg">
<path d="M4.47246 7.44085C4.2496 6.9826 4.13378 6.4797 4.13374 5.97013C4.13374 5.69125 4.17406 5.40469 4.25662 5.09525C4.29359 4.95605 4.33998 4.82293 4.39214 4.69381C4.19198 4.58453 3.97199 4.51733 3.73599 4.51733C2.86079 4.51733 2.15231 5.34181 2.15231 6.36005C2.15231 7.07237 2.50046 7.68885 3.00894 7.99557L0.862545 8.99461C0.728785 9.05749 0.640625 9.20853 0.640625 9.37733V11.0714C0.640625 11.2985 0.799185 11.4825 0.994225 11.4825H2.26286V9.70485C2.26286 9.18693 2.55119 8.71733 2.99871 8.50789L4.64062 7.74325C4.57921 7.64553 4.52308 7.54458 4.47246 7.44085Z" fill="black"/>
<path d="M9.62196 5.56822H15.0767V5.56806L15.0776 5.56822C15.2333 5.56822 15.3594 5.44198 15.3594 5.28646V4.2575C15.3594 4.10182 15.2332 3.97574 15.0776 3.97574L15.0767 3.9759V3.9751H8.98132C9.24975 4.32827 9.44186 4.73337 9.54548 5.1647C9.57988 5.30694 9.60484 5.4399 9.62196 5.56822Z" fill="black"/>
<path d="M15.3594 10.6298C15.3594 10.4741 15.2331 10.3481 15.0776 10.3481L15.0766 10.3482V10.3474H11.5211V11.8017C11.5211 11.8485 11.5186 11.8948 11.5139 11.9404H15.0766V11.9402L15.0776 11.9404C15.2333 11.9404 15.3594 11.8141 15.3594 11.6586V10.6298Z" fill="black"/>
<path d="M15.0776 7.16202L15.0766 7.16218V7.16138H9.43103C9.40559 7.22842 9.37871 7.29514 9.34879 7.36122C9.29146 7.48779 9.22604 7.61056 9.15295 7.72874L10.799 8.51402C10.9226 8.57495 11.035 8.65625 11.1315 8.7545H15.0766V8.75434L15.0776 8.7545C15.2333 8.7545 15.3594 8.62826 15.3594 8.47274V7.44378C15.3594 7.2881 15.2331 7.16202 15.0776 7.16202Z" fill="black"/>
<path d="M10.4517 9.23233L8.60351 8.35073L7.82191 7.97793C8.16335 7.76289 8.44047 7.43105 8.62191 7.03121C8.77319 6.69797 8.85148 6.33623 8.85151 5.97025C8.85151 5.75457 8.81743 5.54993 8.76959 5.35217C8.53711 4.39489 7.78943 3.68945 6.89183 3.68945C6.01119 3.68945 5.27487 4.36961 5.02815 5.29985C4.97119 5.51313 4.93183 5.73505 4.93183 5.97009C4.93183 6.37841 5.02719 6.75889 5.18927 7.09009C5.37663 7.47409 5.65423 7.79073 5.99215 7.99425L5.24367 8.34273L3.33551 9.23137C3.16959 9.30897 3.06079 9.49601 3.06079 9.70481V11.8016C3.06079 12.0826 3.25663 12.3106 3.49839 12.3106H10.2851C10.5269 12.3106 10.7227 12.0827 10.7227 11.8016V9.70497C10.723 9.49681 10.6158 9.31169 10.4517 9.23233Z" fill="black"/>
</svg>
